<svg width="28" height="28" viewBox="0 0 28 28" fill="none" xmlns="http://www.w3.org/2000/svg">
<path d="M9.7942 2.97724C11.5149 1.91109 13.0168 2.34074 13.919 3.02512C14.2889 3.30573 14.4739 3.44603 14.5827 3.44603C14.6915 3.44603 14.8765 3.30573 15.2464 3.02512C16.1486 2.34074 17.6504 1.91109 19.3712 2.97724C21.6294 4.37645 22.1404 8.99251 16.9315 12.8869C15.9393 13.6287 15.4433 13.9996 14.5827 13.9996C13.7221 13.9996 13.226 13.6287 12.2339 12.8869C7.02495 8.99251 7.53594 4.37645 9.7942 2.97724Z" fill="#CCE6DA"/>
<path d="M13.919 3.02512L14.3722 2.42758V2.42758L13.919 3.02512ZM9.7942 2.97724L9.39919 2.3397L9.39919 2.3397L9.7942 2.97724ZM12.2339 12.8869L12.683 12.2862V12.2862L12.2339 12.8869ZM15.2464 3.02512L14.7931 2.42758V2.42758L15.2464 3.02512ZM19.3712 2.97724L19.7662 2.3397V2.3397L19.3712 2.97724ZM16.9315 12.8869L16.4824 12.2862H16.4824L16.9315 12.8869ZM4.66602 15.5833C4.2518 15.5833 3.91602 15.9191 3.91602 16.3333C3.91602 16.7475 4.2518 17.0833 4.66602 17.0833V16.3333V15.5833ZM8.44855 16.5591L8.7752 15.884V15.884L8.44855 16.5591ZM10.8309 17.7118L10.5042 18.3869H10.5042L10.8309 17.7118ZM15.0888 20.0981L15.2886 20.8209H15.2886L15.0888 20.0981ZM12.1244 20.9177L11.9245 20.1948V20.1948L12.1244 20.9177ZM10.5285 20.7741L10.8552 20.099V20.099L10.5285 20.7741ZM8.30846 18.8668C7.9356 18.6864 7.48708 18.8424 7.30668 19.2153C7.12627 19.5881 7.28229 20.0366 7.65515 20.2171L7.98181 19.5419L8.30846 18.8668ZM14.9457 18.533C14.5498 18.6547 14.3274 19.0743 14.4491 19.4702C14.5707 19.8662 14.9903 20.0885 15.3863 19.9669L15.166 19.25L14.9457 18.533ZM20.5243 17.6037L20.7445 18.3206L20.7473 18.3197L20.5243 17.6037ZM22.7242 20.2932L22.3494 19.6435V19.6435L22.7242 20.2932ZM13.956 25.3522L14.3309 26.0019V26.0019L13.956 25.3522ZM12.127 25.5705L11.9137 26.2895H11.9137L12.127 25.5705ZM4.87937 22.6376C4.48227 22.5197 4.06484 22.7461 3.947 23.1432C3.82917 23.5403 4.05556 23.9577 4.45266 24.0756L4.66602 23.3566L4.87937 22.6376ZM23.096 18.4826L22.4879 18.9217H22.4879L23.096 18.4826ZM13.919 3.02512L14.3722 2.42758C13.2601 1.58391 11.4214 1.08677 9.39919 2.3397L9.7942 2.97724L10.1892 3.61479C11.6085 2.73541 12.7735 3.09756 13.4657 3.62265L13.919 3.02512ZM9.7942 2.97724L9.39919 2.3397C7.96895 3.22587 7.19885 5.05018 7.47037 7.0951C7.74404 9.1562 9.05929 11.4499 11.7848 13.4876L12.2339 12.8869L12.683 12.2862C10.1995 10.4295 9.16582 8.46799 8.95732 6.89766C8.74667 5.31115 9.3612 4.12783 10.1892 3.61479L9.7942 2.97724ZM15.2464 3.02512L15.6997 3.62265C16.3919 3.09756 17.5569 2.73541 18.9761 3.61479L19.3712 2.97724L19.7662 2.3397C17.744 1.08677 15.9053 1.58391 14.7931 2.42758L15.2464 3.02512ZM19.3712 2.97724L18.9761 3.61479C19.8042 4.12783 20.4187 5.31115 20.208 6.89766C19.9995 8.46799 18.9658 10.4295 16.4824 12.2862L16.9315 12.8869L17.3806 13.4876C20.1061 11.4499 21.4213 9.1562 21.695 7.0951C21.9665 5.05018 21.1964 3.22587 19.7662 2.3397L19.3712 2.97724ZM12.2339 12.8869L11.7848 13.4876C12.7401 14.2018 13.433 14.7496 14.5827 14.7496V13.9996V13.2496C14.0112 13.2496 13.712 13.0555 12.683 12.2862L12.2339 12.8869ZM16.9315 12.8869L16.4824 12.2862C15.4534 13.0555 15.1541 13.2496 14.5827 13.2496V13.9996V14.7496C15.7324 14.7496 16.4253 14.2018 17.3806 13.4876L16.9315 12.8869ZM13.919 3.02512L13.4657 3.62265C13.6417 3.75619 13.8037 3.87954 13.935 3.96639C14.002 4.01064 14.0839 4.06106 14.1737 4.10201C14.2576 4.14034 14.4025 4.19603 14.5827 4.19603V3.44603V2.69603C14.7084 2.69603 14.7894 2.73419 14.7965 2.73744C14.8094 2.74332 14.8016 2.74112 14.7624 2.71522C14.6816 2.66176 14.5661 2.57465 14.3722 2.42758L13.919 3.02512ZM15.2464 3.02512L14.7931 2.42758C14.5992 2.57465 14.4838 2.66176 14.4029 2.71522C14.3638 2.74112 14.356 2.74332 14.3689 2.73744C14.376 2.73419 14.4569 2.69603 14.5827 2.69603V3.44603V4.19603C14.7628 4.19603 14.9077 4.14034 14.9917 4.10201C15.0814 4.06106 15.1634 4.01064 15.2303 3.96639C15.3616 3.87954 15.5236 3.75619 15.6997 3.62265L15.2464 3.02512ZM4.66602 16.3333V17.0833H7.45997V16.3333V15.5833H4.66602V16.3333ZM8.44855 16.5591L8.12189 17.2343L10.5042 18.3869L10.8309 17.7118L11.1575 17.0367L8.7752 15.884L8.44855 16.5591ZM11.8194 17.9376V18.6876L13.0358 18.6876V17.9376V17.1876H11.8194V17.9376ZM15.0888 20.0981L14.8889 19.3752L11.9245 20.1948L12.1244 20.9177L12.3242 21.6405L15.2886 20.8209L15.0888 20.0981ZM10.5285 20.7741L10.8552 20.099L8.30846 18.8668L7.98181 19.5419L7.65515 20.2171L10.2019 21.4493L10.5285 20.7741ZM12.1244 20.9177L11.9245 20.1948C11.5674 20.2935 11.1852 20.2587 10.8552 20.099L10.5285 20.7741L10.2019 21.4493C10.8611 21.7682 11.6177 21.8359 12.3242 21.6405L12.1244 20.9177ZM15.166 19.999H14.416C14.416 19.6933 14.6237 19.4485 14.8889 19.3752L15.0888 20.0981L15.2886 20.8209C15.6453 20.7223 15.916 20.3967 15.916 19.999H15.166ZM13.0358 17.9376V18.6876C13.8215 18.6876 14.416 19.2978 14.416 19.999H15.166H15.916C15.916 18.4233 14.6031 17.1876 13.0358 17.1876V17.9376ZM10.8309 17.7118L10.5042 18.3869C10.9137 18.585 11.3639 18.6876 11.8194 18.6876V17.9376V17.1876C11.5886 17.1876 11.3619 17.1356 11.1575 17.0367L10.8309 17.7118ZM7.45997 16.3333V17.0833C7.69076 17.0833 7.91747 17.1353 8.12189 17.2343L8.44855 16.5591L8.7752 15.884C8.36574 15.6859 7.91553 15.5833 7.45997 15.5833V16.3333ZM15.166 19.25L15.3863 19.9669L20.7445 18.3206L20.5243 17.6037L20.304 16.8868L14.9457 18.533L15.166 19.25ZM22.7242 20.2932L22.3494 19.6435L13.5812 24.7026L13.956 25.3522L14.3309 26.0019L23.099 20.9428L22.7242 20.2932ZM12.127 25.5705L12.3404 24.8515L4.87937 22.6376L4.66602 23.3566L4.45266 24.0756L11.9137 26.2895L12.127 25.5705ZM13.956 25.3522L13.5812 24.7026C13.2005 24.9223 12.7551 24.9746 12.3404 24.8515L12.127 25.5705L11.9137 26.2895C12.7258 26.5305 13.5962 26.4257 14.3309 26.0019L13.956 25.3522ZM23.096 18.4826L22.4879 18.9217C22.6654 19.1675 22.5803 19.5103 22.3494 19.6435L22.7242 20.2932L23.099 20.9428C24.1218 20.3527 24.387 18.9893 23.704 18.0436L23.096 18.4826ZM20.5243 17.6037L20.7473 18.3197C21.3805 18.1225 22.0761 18.3514 22.4879 18.9217L23.096 18.4826L23.704 18.0436C22.9258 16.9659 21.5678 16.493 20.3012 16.8876L20.5243 17.6037Z" fill="#006B3B"/>
</svg>
